<svg width="24" height="21" viewBox="0 0 24 21" fill="none" xmlns="http://www.w3.org/2000/svg">
<path d="M5.20874 9.99999H16.3787L11.4987 14.88C11.1087 15.27 11.1087 15.91 11.4987 16.3C11.8887 16.69 12.5187 16.69 12.9087 16.3L19.4987 9.70999C19.8887 9.31999 19.8887 8.68999 19.4987 8.29999L12.9187 1.69999C12.7319 1.51273 12.4783 1.4075 12.2137 1.4075C11.9492 1.4075 11.6956 1.51273 11.5087 1.69999C11.1187 2.08999 11.1187 2.71999 11.5087 3.10999L16.3787 7.99999H5.20874C4.65874 7.99999 4.20874 8.44999 4.20874 8.99999C4.20874 9.54999 4.65874 9.99999 5.20874 9.99999Z" fill="#37474F"/>
<mask id="mask0_0_16" style="mask-type:alpha" maskUnits="userSpaceOnUse" x="4" y="1" width="16" height="16">
<path d="M5.20874 9.99999H16.3787L11.4987 14.88C11.1087 15.27 11.1087 15.91 11.4987 16.3C11.8887 16.69 12.5187 16.69 12.9087 16.3L19.4987 9.70999C19.8887 9.31999 19.8887 8.68999 19.4987 8.29999L12.9187 1.69999C12.7319 1.51273 12.4783 1.4075 12.2137 1.4075C11.9492 1.4075 11.6956 1.51273 11.5087 1.69999C11.1187 2.08999 11.1187 2.71999 11.5087 3.10999L16.3787 7.99999H5.20874C4.65874 7.99999 4.20874 8.44999 4.20874 8.99999C4.20874 9.54999 4.65874 9.99999 5.20874 9.99999Z" fill="white"/>
</mask>
<g mask="url(#mask0_0_16)">
</g>
</svg>
